<?xml version="1.0" encoding="UTF-8"?>
<svg id="Layer_1" data-name="Layer 1" xmlns="http://www.w3.org/2000/svg" viewBox="0 0 82.05 80">
  <path d="M67.52,0H14.53C6.51,0,0,6.51,0,14.53v50.94c0,8.02,6.51,14.53,14.53,14.53h52.99c8.02,0,14.53-6.51,14.53-14.53V14.53c0-8.02-6.51-14.53-14.53-14.53Z" style="fill: #001e36; stroke-width: 0px;"/>
  <g>
    <path d="M49.91,36.19c4.17.04,7.53,3.19,7.49,7.04-.04,3.85-3.46,6.95-7.63,6.91-4.17-.04-7.53-3.19-7.49-7.04.04-3.8,3.37-6.87,7.49-6.91" style="fill: #fff; stroke-width: 0px;"/>
    <path d="M30.29,44.62c-.45,9.88,7.89,18.1,18.63,18.37,10.74.27,19.82-7.52,20.27-17.4.25-5.54-2.3-10.85-6.92-14.35l-17.59-13.52c-1.36-.97-2.81-.97-4.36,0-1.36,1.07-1.45,2.18-.29,3.34l7.27,5.96h-22.39c-2.23.19-3.54,1.11-3.92,2.76-.44,1.6,1.02,2.91,2.76,2.91h11.34l-19.33,14.83c-2.81,2.04-3.59,4.07-2.33,6.11,1.55,1.84,3.68,1.7,6.4-.44l10.47-8.58ZM49.62,32.55c6.58.04,11.92,4.95,11.92,10.97,0,6.02-5.33,10.87-11.92,10.84-6.58-.04-11.92-4.95-11.92-10.97,0-5.97,5.25-10.8,11.77-10.84h.15Z" style="fill: #ea7600; stroke-width: 0px;"/>
  </g>
</svg>