<svg width="1440" height="752" viewBox="0 0 1440 752" fill="none" xmlns="http://www.w3.org/2000/svg">
<rect x="-1" width="1463" height="752" fill="url(#paint0_linear_473_651)"/>
<g opacity="0.6">
<line x1="910.499" y1="2" x2="910.499" y2="725" stroke="white" stroke-opacity="0.1"/>
<line x1="1010.5" y1="2" x2="1010.5" y2="725" stroke="white" stroke-opacity="0.1"/>
<line x1="1110.5" y1="2" x2="1110.5" y2="725" stroke="white" stroke-opacity="0.1"/>
<line x1="1210.5" y1="2" x2="1210.5" y2="725" stroke="white" stroke-opacity="0.1"/>
<line x1="1310.5" y1="2" x2="1310.5" y2="725" stroke="white" stroke-opacity="0.1"/>
<line x1="1410.5" y1="2" x2="1410.5" y2="725" stroke="white" stroke-opacity="0.1"/>
<line x1="310.497" y1="2" x2="310.497" y2="725" stroke="white" stroke-opacity="0.1"/>
<line x1="410.497" y1="2" x2="410.497" y2="725" stroke="white" stroke-opacity="0.1"/>
<line x1="510.497" y1="2" x2="510.497" y2="725" stroke="white" stroke-opacity="0.1"/>
<line x1="610.497" y1="2" x2="610.497" y2="725" stroke="white" stroke-opacity="0.1"/>
<line x1="710.497" y1="2" x2="710.497" y2="725" stroke="white" stroke-opacity="0.1"/>
<line x1="810.497" y1="2" x2="810.497" y2="725" stroke="white" stroke-opacity="0.1"/>
<line x1="10.5" y1="2" x2="10.5" y2="725" stroke="white" stroke-opacity="0.1"/>
<line x1="110.5" y1="2" x2="110.5" y2="725" stroke="white" stroke-opacity="0.1"/>
<line x1="210.5" y1="2" x2="210.5" y2="725" stroke="white" stroke-opacity="0.1"/>
<line x1="1454" y1="602.5" x2="-41" y2="602.5" stroke="white" stroke-opacity="0.1"/>
<line x1="1454" y1="702.5" x2="-41" y2="702.5" stroke="white" stroke-opacity="0.1"/>
<line x1="1454" y1="2.5" x2="-41" y2="2.49991" stroke="white" stroke-opacity="0.1"/>
<line x1="1454" y1="102.5" x2="-41" y2="102.5" stroke="white" stroke-opacity="0.1"/>
<line x1="1454" y1="202.5" x2="-41" y2="202.5" stroke="white" stroke-opacity="0.1"/>
<line x1="1454" y1="302.5" x2="-41" y2="302.5" stroke="white" stroke-opacity="0.1"/>
<line x1="1454" y1="402.5" x2="-41" y2="402.5" stroke="white" stroke-opacity="0.1"/>
<line x1="1454" y1="502.5" x2="-41" y2="502.5" stroke="white" stroke-opacity="0.1"/>
</g>
<defs>
<linearGradient id="paint0_linear_473_651" x1="730.5" y1="0" x2="730.5" y2="794.5" gradientUnits="userSpaceOnUse">
<stop stop-color="#3656F5"/>
<stop offset="1"/>
</linearGradient>
</defs>
</svg>
