<?xml version="1.0" encoding="UTF-8"?>
<svg xmlns="http://www.w3.org/2000/svg" xmlns:xlink="http://www.w3.org/1999/xlink" viewBox="0 0 2160 2160">
  <defs>
    <clipPath id="clippath">
      <path d="M1161.29,1296.07h-304.18c-13.32,0-25.15,8.49-29.43,21.1l-41.61,122.85c-4.27,12.61-16.11,21.1-29.43,21.1h-171.7c-21.54,0-36.54-21.39-29.22-41.64l315.61-872.27c4.45-12.3,16.13-20.5,29.22-20.5h219.95c13.08,0,24.76,8.2,29.22,20.5l315.61,872.27c7.33,20.26-7.68,41.64-29.22,41.64h-174.36c-13.32,0-25.15-8.49-29.43-21.1l-41.61-122.85c-4.27-12.61-16.11-21.1-29.43-21.1ZM979.91,865.83l-71.48,213.61c-6.73,20.13,8.24,40.93,29.46,40.93h143.8c21.27,0,36.25-20.89,29.43-41.03l-72.32-213.61c-9.54-28.19-49.45-28.12-58.89.1Z" style="fill: none; stroke-width: 0px;"/>
    </clipPath>
    <linearGradient id="linear-gradient" x1="1010.86" y1="1453.75" x2="1010.86" y2="551.49" gradientUnits="userSpaceOnUse">
      <stop offset="0" stop-color="#fff" stop-opacity="0"/>
      <stop offset="1" stop-color="#d2cab3" stop-opacity=".5"/>
    </linearGradient>
    <linearGradient id="linear-gradient-2" x1="779.64" y1="556.36" x2="779.64" y2="645.1" gradientUnits="userSpaceOnUse">
      <stop offset="0" stop-color="#e3f1ff"/>
      <stop offset=".05" stop-color="rgba(224, 239, 254, .94)" stop-opacity=".94"/>
      <stop offset=".41" stop-color="rgba(204, 230, 254, .54)" stop-opacity=".54"/>
      <stop offset=".69" stop-color="rgba(190, 224, 254, .25)" stop-opacity=".25"/>
      <stop offset=".9" stop-color="rgba(181, 220, 254, .07)" stop-opacity=".07"/>
      <stop offset="1" stop-color="#b2dbfe" stop-opacity="0"/>
    </linearGradient>
    <linearGradient id="linear-gradient-3" x1="896.06" y1="525.13" x2="896.06" y2="634.88" xlink:href="#linear-gradient-2"/>
    <linearGradient id="linear-gradient-4" x1="1278.26" y1="727.92" x2="1278.26" y2="837.67" xlink:href="#linear-gradient-2"/>
  </defs>
  <g style="isolation: isolate;">
    <g id="Layer_1" data-name="Layer 1">
      <rect x="-21.31" y="-6.14" width="2198.64" height="2198.64" style="fill: #d2cab3; stroke-width: 0px;"/>
      <g>
        <path d="M1174.14,992.28l-71.48,213.61c-6.73,20.13,8.24,40.93,29.46,40.93h143.8c21.27,0,36.25-20.89,29.43-41.03l-72.32-213.61c-9.54-28.19-49.45-28.12-58.89.1ZM1355.52,1422.53h-304.18c-13.32,0-25.15,8.49-29.43,21.1l-41.61,122.85c-4.27,12.61-16.11,21.1-29.43,21.1h-171.7c-21.54,0-36.54-21.39-29.22-41.64l315.61-872.27c4.45-12.3,16.13-20.5,29.22-20.5h219.95c13.08,0,24.76,8.2,29.22,20.5l315.61,872.27c7.33,20.26-7.68,41.64-29.22,41.64h-174.36c-13.32,0-25.15-8.49-29.43-21.1l-41.61-122.85c-4.27-12.61-16.11-21.1-29.43-21.1Z" style="fill: #0b5966; stroke-width: 0px;"/>
        <path d="M1125.91,960.67l-71.48,213.61c-6.73,20.13,8.24,40.93,29.46,40.93h143.8c21.27,0,36.25-20.89,29.43-41.03l-72.32-213.61c-9.54-28.19-49.45-28.12-58.89.1ZM1307.3,1390.91h-304.18c-13.32,0-25.15,8.49-29.43,21.1l-41.61,122.85c-4.27,12.61-16.11,21.1-29.43,21.1h-171.7c-21.54,0-36.54-21.39-29.22-41.64l315.61-872.27c4.45-12.3,16.13-20.5,29.22-20.5h219.95c13.08,0,24.76,8.2,29.22,20.5l315.61,872.27c7.33,20.26-7.68,41.64-29.22,41.64h-174.36c-13.32,0-25.15-8.49-29.43-21.1l-41.61-122.85c-4.27-12.61-16.11-21.1-29.43-21.1Z" style="fill: #116a70; stroke-width: 0px;"/>
        <path d="M1077.69,929.05l-71.48,213.61c-6.73,20.13,8.24,40.93,29.46,40.93h143.8c21.27,0,36.25-20.89,29.43-41.03l-72.32-213.61c-9.54-28.19-49.45-28.12-58.89.1ZM1259.07,1359.3h-304.18c-13.32,0-25.15,8.49-29.43,21.1l-41.61,122.85c-4.27,12.61-16.11,21.1-29.43,21.1h-171.7c-21.54,0-36.54-21.39-29.22-41.64l315.61-872.27c4.45-12.3,16.13-20.5,29.22-20.5h219.95c13.08,0,24.76,8.2,29.22,20.5l315.61,872.27c7.33,20.26-7.68,41.64-29.22,41.64h-174.36c-13.32,0-25.15-8.49-29.43-21.1l-41.61-122.85c-4.27-12.61-16.11-21.1-29.43-21.1Z" style="fill: #187c7b; stroke-width: 0px;"/>
        <path d="M1029.46,897.44l-71.48,213.61c-6.73,20.13,8.24,40.93,29.46,40.93h143.8c21.27,0,36.25-20.89,29.43-41.03l-72.32-213.61c-9.54-28.19-49.45-28.12-58.89.1ZM1210.84,1327.69h-304.18c-13.32,0-25.15,8.49-29.43,21.1l-41.61,122.85c-4.27,12.61-16.11,21.1-29.43,21.1h-171.7c-21.54,0-36.54-21.39-29.22-41.64l315.61-872.27c4.45-12.3,16.13-20.5,29.22-20.5h219.95c13.08,0,24.76,8.2,29.22,20.5l315.61,872.27c7.33,20.26-7.68,41.64-29.22,41.64h-174.36c-13.32,0-25.15-8.49-29.43-21.1l-41.61-122.85c-4.27-12.61-16.11-21.1-29.43-21.1Z" style="fill: #1e8d85; stroke-width: 0px;"/>
        <path d="M981.23,865.83l-71.48,213.61c-6.73,20.13,8.24,40.93,29.46,40.93h143.8c21.27,0,36.25-20.89,29.43-41.03l-72.32-213.61c-9.54-28.19-49.45-28.12-58.89.1ZM1162.62,1296.07h-304.18c-13.32,0-25.15,8.49-29.43,21.1l-41.61,122.85c-4.27,12.61-16.11,21.1-29.43,21.1h-171.7c-21.54,0-36.54-21.39-29.22-41.64l315.61-872.27c4.45-12.3,16.13-20.5,29.22-20.5h219.95c13.08,0,24.76,8.2,29.22,20.5l315.61,872.27c7.33,20.26-7.68,41.64-29.22,41.64h-174.36c-13.32,0-25.15-8.49-29.43-21.1l-41.61-122.85c-4.27-12.61-16.11-21.1-29.43-21.1Z" style="fill: #249e8f; stroke-width: 0px;"/>
      </g>
      <g style="clip-path: url(#clippath);">
        <path d="M740.05,1022.02c4.59,13.77,223.19,291.08,223.19,291.08l331.98-363.77,607.05,256.54-312.8,504.87s-427.01-22.96-477.51,0c-50.51,22.96-22.96,18.37-50.51,22.96-27.55,4.59-575.34-252.53-575.34-252.53l253.94-459.15Z" style="fill: #903f38; stroke-width: 0px;"/>
        <polygon points="740.05 1022.02 683.39 1234.39 718.37 1246.82 683.39 1295.61 648.4 1437.72 779.59 1387.44 928.09 1270.32 740.05 1022.02" style="fill: #541916; mix-blend-mode: overlay; opacity: .43; stroke-width: 0px;"/>
        <path d="M1266.8,1030.72l-100.22,171.04,100.57-32.47-90.81,158.92s-33.81,193.09-27.25,193.09,474.45-181.47,474.45-181.47l-279.86-435.09-76.88,125.98Z" style="fill: #541916; mix-blend-mode: overlay; opacity: .43; stroke-width: 0px;"/>
        <circle cx="1014.5" cy="822.12" r="171.81" style="fill: #e5771e; stroke-width: 0px;"/>
        <path d="M982.47,1120.37c4.59,13.77,218.42,254.93,218.42,254.93l489.18-489.18,301.13,301.13-312.8,504.87s-427.01-22.96-477.51,0c-50.51,22.96-22.96,18.37-50.51,22.96-27.55,4.59-575.34-252.53-575.34-252.53l407.42-342.17Z" style="fill: #ae6f3c; stroke-width: 0px;"/>
        <polygon points="978.62 1143.5 928.09 1270.32 894.73 1270.32 936.68 1419.29 1161.12 1419.29 1131.07 1296.07 982.47 1120.37 978.62 1143.5" style="fill: #9b4f16; stroke-width: 0px;"/>
        <polygon points="1492.13 1209.4 1441.59 1336.22 1408.24 1336.22 1323.14 1504.14 1674.63 1485.2 1644.57 1361.98 1495.98 1186.27 1492.13 1209.4" style="fill: #9b4f16; stroke-width: 0px;"/>
      </g>
      <g>
        <path d="M1262.08,1451.13c-9.04,0-17.06-5.75-19.96-14.31l-41.61-122.85c-5.65-16.68-21.28-27.89-38.9-27.89h-304.18c-17.62,0-33.25,11.21-38.9,27.89l-41.61,122.85c-2.9,8.56-10.92,14.31-19.96,14.31h-171.7c-6.96,0-13.25-3.27-17.25-8.97-4-5.7-4.93-12.72-2.56-19.27l315.61-872.27c3.01-8.31,10.97-13.9,19.81-13.9h219.95c8.84,0,16.8,5.59,19.81,13.9l315.61,872.27c2.37,6.55,1.43,13.57-2.56,19.27-4,5.7-10.29,8.97-17.25,8.97h-174.36ZM1009.7,834.62c-17.96,0-33.25,11-38.95,28.04l-71.48,213.62c-4.24,12.68-2.2,26.18,5.62,37.03,7.81,10.85,19.96,17.08,33.33,17.08h143.8c13.4,0,25.56-6.25,33.37-17.13,7.81-10.89,9.83-24.41,5.53-37.11l-72.31-213.62c-5.74-16.95-21.01-27.9-38.9-27.9Z" style="fill: url(#linear-gradient); stroke-width: 0px;"/>
        <path d="M1120.84,546.72c4.65,0,8.83,2.94,10.41,7.3l315.61,872.27c1.7,4.71-.11,8.36-1.35,10.12-1.23,1.76-4.05,4.71-9.06,4.71h-174.36c-4.75,0-8.96-3.02-10.48-7.52l-41.61-122.85c-7.03-20.75-26.47-34.69-48.37-34.69h-304.18c-21.9,0-41.34,13.94-48.37,34.69l-41.61,122.85c-1.52,4.5-5.74,7.52-10.48,7.52h-171.7c-5.01,0-7.83-2.95-9.06-4.71-1.23-1.76-3.05-5.42-1.35-10.12l315.61-872.27c1.58-4.37,5.76-7.3,10.41-7.3h219.95M938.22,1140.37h143.8c16.42,0,31.93-7.96,41.5-21.31,9.57-13.34,12.14-30.59,6.87-46.14l-72.31-213.61c-7.13-21.08-26.12-34.69-48.37-34.69s-41.35,13.68-48.43,34.86l-71.48,213.61c-5.2,15.54-2.59,32.75,6.98,46.04,9.57,13.3,25.07,21.23,41.45,21.23M1120.84,526.72h-219.95c-13.08,0-24.76,8.2-29.22,20.5l-315.61,872.27c-7.33,20.26,7.68,41.64,29.22,41.64h171.7c13.32,0,25.15-8.49,29.43-21.1l41.61-122.85c4.27-12.61,16.11-21.1,29.43-21.1h304.18c13.32,0,25.15,8.49,29.43,21.1l41.61,122.85c4.27,12.61,16.11,21.1,29.43,21.1h174.36c21.54,0,36.54-21.39,29.22-41.64l-315.61-872.27c-4.45-12.3-16.13-20.5-29.22-20.5h0ZM938.22,1120.37c-21.22,0-36.2-20.8-29.46-40.93l71.48-213.61c4.73-14.14,17.1-21.21,29.47-21.21s24.66,7.03,29.43,21.11l72.31,213.61c6.82,20.15-8.16,41.03-29.43,41.03h-143.8Z" style="fill: #fff; stroke-width: 0px;"/>
      </g>
      <path d="M920.05,634.53c-2.74-26.45-32.67-18-51.09-24.14-3.07-.77-6.14-3.07-6.91-5.37-22.96-37.75-46.46-52.22-75.65-44.6-2.25.59-4.52,1.3-6.84,2.15-12.68,4.07-22.65,13.28-34.16,18.66-13.81,6.91-19.19-12.28-29.16-18.42-1.73-1.06-3.55-1.89-5.43-2.53-13.14-4.42-28.96,1.38-33.26,14.87-.72,1.85-1.25,3.76-1.59,5.69-.33,1.93-.46,3.88-.36,5.8.09,1.51.23,2.89.3,4.11.14,2.43-.02,4.18-1.11,5.05-8.44,8.44-21.49,11.51-28.78,22.54-6.52,8.73-9.21,19.28-4.22,30.41,3.07,6.14,8.25,10.74,14.39,13.53,18.61,7.96,38.56-1.25,48.54-17.36,9.21,9.21,21.49,14.58,33.77,16.12,45.28,6.14,88.26-4.6,132,9.98,12.28,3.84,26.86,0,37.11-9.78,4.8-2.96,12.84-13.45,12.44-26.7Z" style="fill: url(#linear-gradient-2); stroke-width: 0px;"/>
      <path d="M752.8,611.45c2.73-25.98,40.97-36.5,65.92-28.74,4.96-28.27,29.73-51.89,58.2-55.5,28.47-3.61,58.36,13.07,70.22,39.2,18.36-4.38,38.73,11.19,39.32,30.06,11.63.21,23.64.51,34.25,5.29,10.61,4.78,19.54,15.29,18.74,26.9-.79,11.45-10.58,20.43-21.11,24.97-21.44,9.24-48.33,3.91-64.62-12.81-14.9,11.63-34.22,17.46-53.06,16.01-18.85-1.45-37.04-10.16-49.99-23.93-23.22,2.09-29.18,25.08-52.26,21.78-5.7-.81-29.04-11.74-34.04-14.59-5-2.85-13.14-13.76-11.57-28.65Z" style="fill: url(#linear-gradient-3); stroke-width: 0px;"/>
      <path d="M1135,814.23c2.73-25.98,40.97-36.5,65.92-28.74,4.96-28.27,29.73-51.89,58.2-55.5,28.47-3.61,58.36,13.07,70.22,39.2,18.36-4.38,38.73,11.19,39.32,30.06,11.63.21,23.64.51,34.25,5.29,10.61,4.78,19.54,15.29,18.74,26.9-.79,11.45-10.58,20.43-21.11,24.97-21.44,9.24-48.33,3.91-64.62-12.81-14.9,11.63-34.22,17.46-53.06,16.01-18.85-1.45-37.04-10.16-49.99-23.93-23.22,2.09-29.18,25.08-52.26,21.78-5.7-.81-29.04-11.74-34.04-14.59-5-2.85-13.14-13.76-11.57-28.65Z" style="fill: url(#linear-gradient-4); stroke-width: 0px;"/>
    </g>
  </g>
</svg>