<svg width="40" height="40" viewBox="0 0 40 40" fill="none" xmlns="http://www.w3.org/2000/svg">
<rect width="40" height="40" rx="4" fill="#084BDA"/>
<path d="M33.4444 5C34.6711 5 35.6667 5.99556 35.6667 7.22222C35.6667 8.44889 34.6711 9.44444 33.4444 9.44444C32.2178 9.44444 31.2222 8.44889 31.2222 7.22222C31.2222 5.99556 32.2178 5 33.4444 5ZM20.1111 9.44444C26.2467 9.44444 31.2222 14.42 31.2222 20.5556C31.2222 26.6911 26.2467 31.6667 20.1111 31.6667C13.9756 31.6667 9 26.6911 9 20.5556C9 14.42 13.9756 9.44444 20.1111 9.44444ZM20.1111 13.8889C18.343 13.8889 16.6473 14.5913 15.3971 15.8415C14.1468 17.0918 13.4444 18.7874 13.4444 20.5556C13.4444 22.3237 14.1468 24.0194 15.3971 25.2696C16.6473 26.5198 18.343 27.2222 20.1111 27.2222C21.8792 27.2222 23.5749 26.5198 24.8252 25.2696C26.0754 24.0194 26.7778 22.3237 26.7778 20.5556C26.7778 18.7874 26.0754 17.0918 24.8252 15.8415C23.5749 14.5913 21.8792 13.8889 20.1111 13.8889Z" fill="#FAFBFF"/>
</svg>
