<?xml version="1.0" encoding="UTF-8"?>
<svg id="Layer_1" data-name="Layer 1" xmlns="http://www.w3.org/2000/svg" viewBox="0 0 82.05 80">
  <path d="M67.52,0H14.53C6.51,0,0,6.51,0,14.53v50.94c0,8.02,6.51,14.53,14.53,14.53h52.99c8.02,0,14.53-6.51,14.53-14.53V14.53c0-8.02-6.51-14.53-14.53-14.53Z" style="fill: #f7df1e; stroke-width: 0px;"/>
  <g>
    <path d="M21.57,67.54l6.28-3.8c1.21,2.15,2.31,3.97,4.96,3.97s4.13-.99,4.13-4.85v-26.22h7.71v26.33c0,7.99-4.68,11.62-11.51,11.62-6.17,0-9.75-3.19-11.57-7.05" style="fill: #000; stroke-width: 0px;"/>
    <path d="M48.84,66.72l6.28-3.64c1.65,2.7,3.8,4.68,7.6,4.68,3.19,0,5.23-1.6,5.23-3.8,0-2.64-2.09-3.58-5.62-5.12l-1.93-.83c-5.56-2.37-9.25-5.34-9.25-11.62,0-5.78,4.41-10.19,11.29-10.19,4.9,0,8.43,1.71,10.96,6.17l-6,3.86c-1.32-2.37-2.75-3.3-4.96-3.3s-3.69,1.43-3.69,3.3c0,2.31,1.43,3.25,4.74,4.68l1.93.83c6.55,2.81,10.24,5.67,10.24,12.12,0,6.94-5.45,10.74-12.78,10.74s-11.79-3.41-14.04-7.88" style="fill: #000; stroke-width: 0px;"/>
  </g>
</svg>